<mxfile host="Electron" agent="Mozilla/5.0 (Windows NT 10.0; Win64; x64) AppleWebKit/537.36 (KHTML, like Gecko) draw.io/26.0.16 Chrome/132.0.6834.196 Electron/34.2.0 Safari/537.36" version="26.0.16">
  <diagram name="Page-1" id="fKUrnK6kIJcOy9esjLKy">
    <mxGraphModel dx="1560" dy="1084" grid="1" gridSize="10" guides="1" tooltips="1" connect="1" arrows="1" fold="1" page="1" pageScale="1" pageWidth="850" pageHeight="1100" math="0" shadow="0">
      <root>
        <mxCell id="0" />
        <mxCell id="1" parent="0" />
        <mxCell id="MajWl_AZHMIYKEwDk7RY-1" value="Dim_Users" style="swimlane;whiteSpace=wrap;html=1;" vertex="1" parent="1">
          <mxGeometry x="490" y="45" width="150" height="190" as="geometry" />
        </mxCell>
        <mxCell id="MajWl_AZHMIYKEwDk7RY-15" value="user_id&#xa;&#xa;created_date_id&#xa;&#xa;is_active&#xa;&#xa;state" style="text;whiteSpace=wrap;fontSize=14;" vertex="1" parent="MajWl_AZHMIYKEwDk7RY-1">
          <mxGeometry x="20" y="30" width="160" height="170" as="geometry" />
        </mxCell>
        <mxCell id="MajWl_AZHMIYKEwDk7RY-2" value="Dim_Receipts" style="swimlane;whiteSpace=wrap;html=1;startSize=23;" vertex="1" parent="1">
          <mxGeometry x="1000" y="350" width="210" height="380" as="geometry" />
        </mxCell>
        <mxCell id="MajWl_AZHMIYKEwDk7RY-19" value="&lt;div&gt;&lt;font style=&quot;font-size: 14px;&quot;&gt;receipt_id&lt;/font&gt;&lt;/div&gt;&lt;div&gt;&lt;font style=&quot;font-size: 14px;&quot;&gt;&lt;br&gt;&lt;/font&gt;&lt;/div&gt;&lt;div&gt;&lt;font style=&quot;font-size: 14px;&quot;&gt;user_id&lt;/font&gt;&lt;/div&gt;&lt;div&gt;&lt;font style=&quot;font-size: 14px;&quot;&gt;&lt;br&gt;&lt;/font&gt;&lt;/div&gt;&lt;div&gt;&lt;font style=&quot;font-size: 14px;&quot;&gt;status&lt;/font&gt;&lt;/div&gt;&lt;div&gt;&lt;font style=&quot;font-size: 14px;&quot;&gt;&lt;br&gt;&lt;/font&gt;&lt;/div&gt;&lt;div&gt;&lt;font style=&quot;font-size: 14px;&quot;&gt;date_scanned&lt;/font&gt;&lt;/div&gt;&lt;div&gt;&lt;font style=&quot;font-size: 14px;&quot;&gt;&lt;br&gt;&lt;/font&gt;&lt;/div&gt;&lt;div&gt;&lt;font style=&quot;font-size: 14px;&quot;&gt;purchase_date&lt;/font&gt;&lt;/div&gt;&lt;div&gt;&lt;font style=&quot;font-size: 14px;&quot;&gt;&lt;br&gt;&lt;/font&gt;&lt;/div&gt;&lt;div&gt;&lt;font style=&quot;font-size: 14px;&quot;&gt;points_awarded_date&lt;/font&gt;&lt;/div&gt;&lt;div&gt;&lt;font style=&quot;font-size: 14px;&quot;&gt;&lt;br&gt;&lt;/font&gt;&lt;/div&gt;&lt;div&gt;&lt;font style=&quot;font-size: 14px;&quot;&gt;total_spent&lt;/font&gt;&lt;/div&gt;&lt;div&gt;&lt;font style=&quot;font-size: 14px;&quot;&gt;&lt;br&gt;&lt;/font&gt;&lt;/div&gt;&lt;div&gt;&lt;font style=&quot;font-size: 14px;&quot;&gt;purchased_item_count&lt;/font&gt;&lt;/div&gt;&lt;div&gt;&lt;font style=&quot;font-size: 14px;&quot;&gt;&lt;br&gt;&lt;/font&gt;&lt;/div&gt;&lt;div&gt;&lt;font style=&quot;font-size: 14px;&quot;&gt;points_earned&lt;/font&gt;&lt;/div&gt;&lt;div&gt;&lt;font style=&quot;font-size: 14px;&quot;&gt;&lt;br&gt;&lt;/font&gt;&lt;/div&gt;&lt;div&gt;&lt;font style=&quot;font-size: 14px;&quot;&gt;bonus_points_earned&lt;/font&gt;&lt;/div&gt;" style="text;html=1;align=left;verticalAlign=middle;resizable=0;points=[];autosize=1;strokeColor=none;fillColor=none;" vertex="1" parent="MajWl_AZHMIYKEwDk7RY-2">
          <mxGeometry x="40" y="30" width="170" height="340" as="geometry" />
        </mxCell>
        <mxCell id="MajWl_AZHMIYKEwDk7RY-3" value="Dim_Brands" style="swimlane;whiteSpace=wrap;html=1;" vertex="1" parent="1">
          <mxGeometry x="860" y="40" width="160" height="230" as="geometry" />
        </mxCell>
        <mxCell id="MajWl_AZHMIYKEwDk7RY-21" value="&lt;div&gt;&lt;font style=&quot;font-size: 14px;&quot;&gt;brand_id&lt;/font&gt;&lt;/div&gt;&lt;div&gt;&lt;font style=&quot;font-size: 14px;&quot;&gt;&lt;br&gt;&lt;/font&gt;&lt;/div&gt;&lt;div&gt;&lt;font style=&quot;font-size: 14px;&quot;&gt;brand_name&lt;/font&gt;&lt;/div&gt;&lt;div&gt;&lt;font style=&quot;font-size: 14px;&quot;&gt;&lt;br&gt;&lt;/font&gt;&lt;/div&gt;&lt;div&gt;&lt;font style=&quot;font-size: 14px;&quot;&gt;brand_code&lt;/font&gt;&lt;/div&gt;&lt;div&gt;&lt;font style=&quot;font-size: 14px;&quot;&gt;&lt;br&gt;&lt;/font&gt;&lt;/div&gt;&lt;div&gt;&lt;font style=&quot;font-size: 14px;&quot;&gt;category&lt;/font&gt;&lt;/div&gt;&lt;div&gt;&lt;font style=&quot;font-size: 14px;&quot;&gt;&lt;br&gt;&lt;/font&gt;&lt;/div&gt;&lt;div style=&quot;&quot;&gt;&lt;font style=&quot;font-size: 14px;&quot;&gt;barcode&lt;/font&gt;&lt;/div&gt;" style="text;html=1;align=left;verticalAlign=middle;resizable=0;points=[];autosize=1;strokeColor=none;fillColor=none;" vertex="1" parent="MajWl_AZHMIYKEwDk7RY-3">
          <mxGeometry x="20" y="40" width="100" height="170" as="geometry" />
        </mxCell>
        <mxCell id="MajWl_AZHMIYKEwDk7RY-4" value="Dim_Date" style="swimlane;whiteSpace=wrap;html=1;" vertex="1" parent="1">
          <mxGeometry x="150" y="45" width="160" height="240" as="geometry" />
        </mxCell>
        <mxCell id="MajWl_AZHMIYKEwDk7RY-7" value="Date_id (PK)&lt;div&gt;&lt;br&gt;&lt;/div&gt;&lt;div&gt;Full_date&lt;/div&gt;&lt;div&gt;&lt;br&gt;&lt;/div&gt;&lt;div&gt;Week&lt;/div&gt;&lt;div&gt;&lt;br&gt;&lt;/div&gt;&lt;div&gt;Month&lt;/div&gt;&lt;div&gt;&lt;br&gt;&lt;/div&gt;&lt;div&gt;Year&lt;/div&gt;&lt;div&gt;&lt;br&gt;&lt;/div&gt;&lt;div&gt;Etc...&lt;/div&gt;" style="text;html=1;align=left;verticalAlign=middle;resizable=0;points=[];autosize=1;strokeColor=none;fillColor=none;fontSize=14;" vertex="1" parent="MajWl_AZHMIYKEwDk7RY-4">
          <mxGeometry x="20" y="25" width="100" height="200" as="geometry" />
        </mxCell>
        <mxCell id="MajWl_AZHMIYKEwDk7RY-5" value="Fact_Receipt_Line_Item" style="swimlane;whiteSpace=wrap;html=1;" vertex="1" parent="1">
          <mxGeometry x="210" y="405" width="190" height="370" as="geometry" />
        </mxCell>
        <mxCell id="MajWl_AZHMIYKEwDk7RY-18" value="&lt;div&gt;&lt;font style=&quot;font-size: 14px;&quot;&gt;receipt_id&lt;/font&gt;&lt;/div&gt;&lt;div&gt;&lt;font style=&quot;font-size: 14px;&quot;&gt;&lt;br&gt;&lt;/font&gt;&lt;/div&gt;&lt;div&gt;&lt;font style=&quot;font-size: 14px;&quot;&gt;brand_code&lt;/font&gt;&lt;/div&gt;&lt;div&gt;&lt;font style=&quot;font-size: 14px;&quot;&gt;&lt;br&gt;&lt;/font&gt;&lt;/div&gt;&lt;div&gt;&lt;font style=&quot;font-size: 14px;&quot;&gt;barcode&lt;/font&gt;&lt;/div&gt;&lt;div&gt;&lt;font style=&quot;font-size: 14px;&quot;&gt;&lt;br&gt;&lt;/font&gt;&lt;/div&gt;&lt;div&gt;&lt;font style=&quot;font-size: 14px;&quot;&gt;&lt;div style=&quot;&quot;&gt;user_id&lt;/div&gt;&lt;div style=&quot;&quot;&gt;&lt;br&gt;&lt;/div&gt;&lt;div style=&quot;&quot;&gt;status&lt;/div&gt;&lt;div style=&quot;&quot;&gt;&lt;br&gt;&lt;/div&gt;&lt;div style=&quot;&quot;&gt;date_scanned&lt;/div&gt;&lt;/font&gt;&lt;/div&gt;&lt;div&gt;&lt;font style=&quot;font-size: 14px;&quot;&gt;&lt;br&gt;&lt;/font&gt;&lt;/div&gt;&lt;div&gt;&lt;font style=&quot;font-size: 14px;&quot;&gt;description&lt;/font&gt;&lt;/div&gt;&lt;div&gt;&lt;font style=&quot;font-size: 14px;&quot;&gt;&lt;br&gt;&lt;/font&gt;&lt;/div&gt;&lt;div&gt;&lt;font style=&quot;font-size: 14px;&quot;&gt;points_earned&lt;/font&gt;&lt;/div&gt;&lt;div&gt;&lt;font style=&quot;font-size: 14px;&quot;&gt;&lt;br&gt;&lt;/font&gt;&lt;/div&gt;&lt;div&gt;&lt;font style=&quot;font-size: 14px;&quot;&gt;item_price&lt;/font&gt;&lt;/div&gt;" style="text;html=1;align=left;verticalAlign=middle;resizable=0;points=[];autosize=1;strokeColor=none;fillColor=none;fontSize=13;" vertex="1" parent="MajWl_AZHMIYKEwDk7RY-5">
          <mxGeometry x="20" y="35" width="110" height="300" as="geometry" />
        </mxCell>
        <mxCell id="MajWl_AZHMIYKEwDk7RY-22" style="edgeStyle=orthogonalEdgeStyle;rounded=0;orthogonalLoop=1;jettySize=auto;html=1;entryX=0.03;entryY=0.057;entryDx=0;entryDy=0;entryPerimeter=0;fontSize=14;exitX=1.02;exitY=0.042;exitDx=0;exitDy=0;exitPerimeter=0;" edge="1" parent="1" source="MajWl_AZHMIYKEwDk7RY-18" target="MajWl_AZHMIYKEwDk7RY-19">
          <mxGeometry relative="1" as="geometry">
            <Array as="points">
              <mxPoint x="342" y="435" />
              <mxPoint x="560" y="435" />
              <mxPoint x="560" y="555" />
              <mxPoint x="940" y="555" />
              <mxPoint x="940" y="399" />
            </Array>
          </mxGeometry>
        </mxCell>
        <mxCell id="MajWl_AZHMIYKEwDk7RY-23" value="&lt;font style=&quot;font-size: 15px;&quot;&gt;FK MANY:1&lt;/font&gt;" style="edgeLabel;html=1;align=center;verticalAlign=middle;resizable=0;points=[];" vertex="1" connectable="0" parent="MajWl_AZHMIYKEwDk7RY-22">
          <mxGeometry x="-0.1611" y="-1" relative="1" as="geometry">
            <mxPoint as="offset" />
          </mxGeometry>
        </mxCell>
        <mxCell id="MajWl_AZHMIYKEwDk7RY-27" style="edgeStyle=orthogonalEdgeStyle;rounded=0;orthogonalLoop=1;jettySize=auto;html=1;entryX=0;entryY=0.25;entryDx=0;entryDy=0;exitX=1.022;exitY=0.079;exitDx=0;exitDy=0;exitPerimeter=0;" edge="1" parent="1" source="MajWl_AZHMIYKEwDk7RY-7" target="MajWl_AZHMIYKEwDk7RY-15">
          <mxGeometry relative="1" as="geometry" />
        </mxCell>
        <mxCell id="MajWl_AZHMIYKEwDk7RY-28" style="edgeStyle=orthogonalEdgeStyle;rounded=0;orthogonalLoop=1;jettySize=auto;html=1;exitX=1;exitY=0.166;exitDx=0;exitDy=0;exitPerimeter=0;entryX=-0.078;entryY=0.522;entryDx=0;entryDy=0;entryPerimeter=0;" edge="1" parent="1" source="MajWl_AZHMIYKEwDk7RY-18" target="MajWl_AZHMIYKEwDk7RY-21">
          <mxGeometry relative="1" as="geometry">
            <mxPoint x="650" y="465" as="targetPoint" />
            <Array as="points">
              <mxPoint x="340" y="485" />
              <mxPoint x="625" y="485" />
              <mxPoint x="625" y="345" />
              <mxPoint x="800" y="345" />
              <mxPoint x="800" y="170" />
              <mxPoint x="822" y="170" />
            </Array>
          </mxGeometry>
        </mxCell>
        <mxCell id="MajWl_AZHMIYKEwDk7RY-29" value="FK" style="edgeLabel;html=1;align=center;verticalAlign=middle;resizable=0;points=[];" vertex="1" connectable="0" parent="MajWl_AZHMIYKEwDk7RY-28">
          <mxGeometry x="-0.1639" y="-6" relative="1" as="geometry">
            <mxPoint x="1" as="offset" />
          </mxGeometry>
        </mxCell>
        <mxCell id="MajWl_AZHMIYKEwDk7RY-32" style="edgeStyle=orthogonalEdgeStyle;rounded=0;orthogonalLoop=1;jettySize=auto;html=1;entryX=-0.078;entryY=0.085;entryDx=0;entryDy=0;entryPerimeter=0;exitX=-0.071;exitY=0.625;exitDx=0;exitDy=0;exitPerimeter=0;" edge="1" parent="1" source="MajWl_AZHMIYKEwDk7RY-18" target="MajWl_AZHMIYKEwDk7RY-7">
          <mxGeometry relative="1" as="geometry">
            <Array as="points">
              <mxPoint x="140" y="628" />
              <mxPoint x="140" y="535" />
              <mxPoint x="80" y="535" />
              <mxPoint x="80" y="87" />
            </Array>
          </mxGeometry>
        </mxCell>
        <mxCell id="MajWl_AZHMIYKEwDk7RY-33" style="edgeStyle=orthogonalEdgeStyle;rounded=0;orthogonalLoop=1;jettySize=auto;html=1;entryX=0.25;entryY=0;entryDx=0;entryDy=0;" edge="1" parent="1" source="MajWl_AZHMIYKEwDk7RY-19" target="MajWl_AZHMIYKEwDk7RY-15">
          <mxGeometry relative="1" as="geometry">
            <Array as="points">
              <mxPoint x="739" y="425" />
              <mxPoint x="739" y="85" />
              <mxPoint x="557" y="85" />
            </Array>
          </mxGeometry>
        </mxCell>
        <mxCell id="MajWl_AZHMIYKEwDk7RY-36" style="edgeStyle=orthogonalEdgeStyle;rounded=0;orthogonalLoop=1;jettySize=auto;html=1;entryX=0;entryY=0.25;entryDx=0;entryDy=0;exitX=1.02;exitY=0.371;exitDx=0;exitDy=0;exitPerimeter=0;" edge="1" parent="1" source="MajWl_AZHMIYKEwDk7RY-18" target="MajWl_AZHMIYKEwDk7RY-1">
          <mxGeometry relative="1" as="geometry">
            <Array as="points">
              <mxPoint x="460" y="551" />
              <mxPoint x="460" y="93" />
            </Array>
          </mxGeometry>
        </mxCell>
        <mxCell id="MajWl_AZHMIYKEwDk7RY-37" style="edgeStyle=orthogonalEdgeStyle;rounded=0;orthogonalLoop=1;jettySize=auto;html=1;entryX=-0.089;entryY=0.079;entryDx=0;entryDy=0;entryPerimeter=0;exitX=-0.065;exitY=0.351;exitDx=0;exitDy=0;exitPerimeter=0;" edge="1" parent="1" source="MajWl_AZHMIYKEwDk7RY-19" target="MajWl_AZHMIYKEwDk7RY-7">
          <mxGeometry relative="1" as="geometry">
            <Array as="points">
              <mxPoint x="980" y="499" />
              <mxPoint x="980" y="835" />
              <mxPoint x="30" y="835" />
              <mxPoint x="30" y="86" />
            </Array>
          </mxGeometry>
        </mxCell>
      </root>
    </mxGraphModel>
  </diagram>
</mxfile>
